<mxfile host="Electron" modified="2024-04-04T03:47:33.610Z" agent="Mozilla/5.0 (Windows NT 10.0; Win64; x64) AppleWebKit/537.36 (KHTML, like Gecko) draw.io/24.1.0 Chrome/120.0.6099.109 Electron/28.1.0 Safari/537.36" etag="3uWrLI__LErQlnuvsPvr" version="24.1.0" type="device">
  <diagram name="Página-1" id="3chRa5z6uhEsrJmAXf3E">
    <mxGraphModel dx="2247" dy="830" grid="1" gridSize="10" guides="1" tooltips="1" connect="1" arrows="1" fold="1" page="1" pageScale="1" pageWidth="827" pageHeight="1169" background="#CCE5FF" math="0" shadow="0">
      <root>
        <mxCell id="0" />
        <mxCell id="1" parent="0" />
        <mxCell id="S9imu5vdCcydGHCziDMM-1" value="&lt;p style=&quot;line-height: 95%;&quot;&gt;&lt;b style=&quot;font-size: 16px;&quot;&gt;&lt;font style=&quot;font-size: 16px;&quot; color=&quot;#000000&quot; face=&quot;Comic Sans MS&quot;&gt;23 Hacer un programa para ingresar un número de mes y listar por pantalla a qué bimestre corresponde ese mes. Tener en cuenta esta lista:&lt;br&gt;&lt;br&gt;Mes 1 y 2. Bimestre 1. Mes 3 y 4. Bimestre 2. Mes 5 y 6. Bimestre 3.&lt;br&gt;&lt;br&gt;Mes 7 y 8. Bimestre 4. Mes 9 y 10. Bimestre 5. Mes 11 y 12. Bimestre 6.&lt;br&gt;&lt;br&gt;Resolver este ejercicio utilizando la menor cantidad de salidas de IF posibles, de forma tal que si en un hipotético caso, hubiera años de 200 meses su diagrama no deba ser modificado en tal situación.&lt;br&gt;&lt;br&gt;Recordar también que la división directa con el operador /  genera un resultado con fracción. Por ejemplo si mes=7 y usted calcula bimestre=7/2 el resultado que obtendrá es bimestre= 3.5, lo cual es incorrecto.&lt;/font&gt;&lt;/b&gt;&lt;/p&gt;" style="text;whiteSpace=wrap;html=1;fontFamily=Architects Daughter;fontSource=https%3A%2F%2Ffonts.googleapis.com%2Fcss%3Ffamily%3DArchitects%2BDaughter;" vertex="1" parent="1">
          <mxGeometry x="70" y="10" width="630" height="230" as="geometry" />
        </mxCell>
        <mxCell id="S9imu5vdCcydGHCziDMM-110" value="" style="group;aspect=fixed;" vertex="1" connectable="0" parent="1">
          <mxGeometry x="-325.5" y="270" width="1353.5" height="742" as="geometry" />
        </mxCell>
        <mxCell id="S9imu5vdCcydGHCziDMM-9" value="" style="group;aspect=fixed;" vertex="1" connectable="0" parent="S9imu5vdCcydGHCziDMM-110">
          <mxGeometry x="625.5" width="40" height="40" as="geometry" />
        </mxCell>
        <mxCell id="S9imu5vdCcydGHCziDMM-2" value="" style="strokeWidth=2;html=1;shape=mxgraph.flowchart.start_2;whiteSpace=wrap;rounded=0;labelBackgroundColor=none;strokeColor=#000000;align=center;verticalAlign=middle;fontFamily=Helvetica;fontSize=12;fontColor=default;fillColor=#d5e8d4;" vertex="1" parent="S9imu5vdCcydGHCziDMM-9">
          <mxGeometry width="40" height="40" as="geometry" />
        </mxCell>
        <mxCell id="S9imu5vdCcydGHCziDMM-7" value="&lt;b&gt;&lt;font color=&quot;#000000&quot; style=&quot;font-size: 17px;&quot; face=&quot;Comic Sans MS&quot;&gt;I&lt;/font&gt;&lt;/b&gt;" style="text;strokeColor=none;align=center;fillColor=none;html=1;verticalAlign=middle;whiteSpace=wrap;rounded=0;fontFamily=Architects Daughter;fontSource=https%3A%2F%2Ffonts.googleapis.com%2Fcss%3Ffamily%3DArchitects%2BDaughter;" vertex="1" parent="S9imu5vdCcydGHCziDMM-9">
          <mxGeometry x="5" y="5" width="30" height="30" as="geometry" />
        </mxCell>
        <mxCell id="S9imu5vdCcydGHCziDMM-10" value="" style="group;aspect=fixed;" vertex="1" connectable="0" parent="S9imu5vdCcydGHCziDMM-110">
          <mxGeometry x="625.5" y="702" width="40" height="40" as="geometry" />
        </mxCell>
        <mxCell id="S9imu5vdCcydGHCziDMM-3" value="" style="strokeWidth=2;html=1;shape=mxgraph.flowchart.start_2;whiteSpace=wrap;rounded=0;labelBackgroundColor=none;strokeColor=#000000;align=center;verticalAlign=middle;fontFamily=Helvetica;fontSize=12;fontColor=default;fillColor=#d5e8d4;" vertex="1" parent="S9imu5vdCcydGHCziDMM-10">
          <mxGeometry width="40" height="40" as="geometry" />
        </mxCell>
        <mxCell id="S9imu5vdCcydGHCziDMM-8" value="&lt;b&gt;&lt;font color=&quot;#000000&quot; style=&quot;font-size: 17px;&quot; face=&quot;Comic Sans MS&quot;&gt;F&lt;/font&gt;&lt;/b&gt;" style="text;strokeColor=none;align=center;fillColor=none;html=1;verticalAlign=middle;whiteSpace=wrap;rounded=0;fontFamily=Architects Daughter;fontSource=https://fonts.googleapis.com/css?family=Architects+Daughter;" vertex="1" parent="S9imu5vdCcydGHCziDMM-10">
          <mxGeometry x="5" y="5" width="30" height="30" as="geometry" />
        </mxCell>
        <mxCell id="S9imu5vdCcydGHCziDMM-12" value="" style="group;aspect=fixed;" vertex="1" connectable="0" parent="S9imu5vdCcydGHCziDMM-110">
          <mxGeometry x="585.5" y="70" width="120" height="40" as="geometry" />
        </mxCell>
        <mxCell id="S9imu5vdCcydGHCziDMM-4" value="" style="shape=trapezoid;perimeter=trapezoidPerimeter;whiteSpace=wrap;html=1;fixedSize=1;rounded=0;labelBackgroundColor=none;strokeColor=#121211;strokeWidth=2;align=center;verticalAlign=middle;fontFamily=Helvetica;fontSize=12;fontColor=default;fillColor=#d5e8d4;direction=west;container=0;aspect=fixed;" vertex="1" parent="S9imu5vdCcydGHCziDMM-12">
          <mxGeometry width="120" height="40" as="geometry">
            <mxRectangle x="-1020" y="-650" width="50" height="40" as="alternateBounds" />
          </mxGeometry>
        </mxCell>
        <mxCell id="S9imu5vdCcydGHCziDMM-11" value="&lt;font face=&quot;Comic Sans MS&quot; color=&quot;#000000&quot;&gt;&lt;span style=&quot;font-size: 16px;&quot;&gt;&lt;b&gt;&amp;nbsp;mes&lt;/b&gt;&lt;/span&gt;&lt;/font&gt;" style="text;strokeColor=none;align=center;fillColor=none;html=1;verticalAlign=middle;whiteSpace=wrap;rounded=0;fontFamily=Architects Daughter;fontSource=https://fonts.googleapis.com/css?family=Architects+Daughter;aspect=fixed;container=0;" vertex="1" parent="S9imu5vdCcydGHCziDMM-12">
          <mxGeometry x="10" width="90" height="40" as="geometry" />
        </mxCell>
        <mxCell id="S9imu5vdCcydGHCziDMM-15" value="" style="group;aspect=fixed;" vertex="1" connectable="0" parent="S9imu5vdCcydGHCziDMM-110">
          <mxGeometry x="600.5" y="150" width="90" height="100" as="geometry" />
        </mxCell>
        <mxCell id="S9imu5vdCcydGHCziDMM-6" value="" style="rhombus;whiteSpace=wrap;html=1;rounded=0;labelBackgroundColor=none;strokeColor=#0F140C;strokeWidth=2;align=center;verticalAlign=middle;fontFamily=Helvetica;fontSize=12;fontColor=default;fillColor=#d5e8d4;" vertex="1" parent="S9imu5vdCcydGHCziDMM-15">
          <mxGeometry width="90" height="100" as="geometry" />
        </mxCell>
        <mxCell id="S9imu5vdCcydGHCziDMM-14" value="&lt;font color=&quot;#000000&quot; size=&quot;1&quot; face=&quot;Comic Sans MS&quot;&gt;&lt;b style=&quot;font-size: 14px;&quot;&gt;mes % 2 !=&lt;/b&gt;&lt;/font&gt;&lt;div&gt;&lt;font color=&quot;#000000&quot; size=&quot;1&quot; face=&quot;Comic Sans MS&quot;&gt;&lt;b style=&quot;font-size: 14px;&quot;&gt;0&lt;/b&gt;&lt;/font&gt;&lt;/div&gt;" style="text;strokeColor=none;align=center;fillColor=none;html=1;verticalAlign=middle;whiteSpace=wrap;rounded=0;fontFamily=Architects Daughter;fontSource=https%3A%2F%2Ffonts.googleapis.com%2Fcss%3Ffamily%3DArchitects%2BDaughter;" vertex="1" parent="S9imu5vdCcydGHCziDMM-15">
          <mxGeometry x="14" y="34" width="60" height="50" as="geometry" />
        </mxCell>
        <mxCell id="S9imu5vdCcydGHCziDMM-22" value="" style="group;aspect=fixed;" vertex="1" connectable="0" parent="S9imu5vdCcydGHCziDMM-110">
          <mxGeometry x="485.5" y="260" width="120" height="30" as="geometry" />
        </mxCell>
        <mxCell id="S9imu5vdCcydGHCziDMM-20" value="" style="rounded=0;whiteSpace=wrap;html=1;labelBackgroundColor=none;strokeColor=#0f100e;strokeWidth=2;align=center;verticalAlign=middle;fontFamily=Helvetica;fontSize=12;fontColor=default;fillColor=#d5e8d4;" vertex="1" parent="S9imu5vdCcydGHCziDMM-22">
          <mxGeometry width="120" height="30" as="geometry" />
        </mxCell>
        <mxCell id="S9imu5vdCcydGHCziDMM-21" value="&lt;b&gt;&lt;font color=&quot;#000000&quot; style=&quot;font-size: 15px;&quot; face=&quot;Comic Sans MS&quot;&gt;mes = mes +1&lt;/font&gt;&lt;/b&gt;" style="text;strokeColor=none;align=center;fillColor=none;html=1;verticalAlign=middle;whiteSpace=wrap;rounded=0;fontFamily=Architects Daughter;fontSource=https://fonts.googleapis.com/css?family=Architects+Daughter;" vertex="1" parent="S9imu5vdCcydGHCziDMM-22">
          <mxGeometry x="5" y="5" width="110" height="20" as="geometry" />
        </mxCell>
        <mxCell id="S9imu5vdCcydGHCziDMM-23" value="" style="group;aspect=fixed;" vertex="1" connectable="0" parent="S9imu5vdCcydGHCziDMM-110">
          <mxGeometry x="585.5" y="350" width="120" height="30" as="geometry" />
        </mxCell>
        <mxCell id="S9imu5vdCcydGHCziDMM-24" value="" style="rounded=0;whiteSpace=wrap;html=1;labelBackgroundColor=none;strokeColor=#0f100e;strokeWidth=2;align=center;verticalAlign=middle;fontFamily=Helvetica;fontSize=12;fontColor=default;fillColor=#d5e8d4;" vertex="1" parent="S9imu5vdCcydGHCziDMM-23">
          <mxGeometry width="120" height="30" as="geometry" />
        </mxCell>
        <mxCell id="S9imu5vdCcydGHCziDMM-25" value="&lt;b&gt;&lt;font color=&quot;#000000&quot; style=&quot;font-size: 15px;&quot; face=&quot;Comic Sans MS&quot;&gt;mes = mes / 2&lt;/font&gt;&lt;/b&gt;" style="text;strokeColor=none;align=center;fillColor=none;html=1;verticalAlign=middle;whiteSpace=wrap;rounded=0;fontFamily=Architects Daughter;fontSource=https://fonts.googleapis.com/css?family=Architects+Daughter;" vertex="1" parent="S9imu5vdCcydGHCziDMM-23">
          <mxGeometry x="5" y="5" width="110" height="20" as="geometry" />
        </mxCell>
        <mxCell id="S9imu5vdCcydGHCziDMM-30" value="" style="group;aspect=fixed;" vertex="1" connectable="0" parent="S9imu5vdCcydGHCziDMM-110">
          <mxGeometry x="600.5" y="420" width="90" height="100" as="geometry" />
        </mxCell>
        <mxCell id="S9imu5vdCcydGHCziDMM-28" value="" style="rhombus;whiteSpace=wrap;html=1;rounded=0;labelBackgroundColor=none;strokeColor=#0F140C;strokeWidth=2;align=center;verticalAlign=middle;fontFamily=Helvetica;fontSize=12;fontColor=default;fillColor=#d5e8d4;container=0;" vertex="1" parent="S9imu5vdCcydGHCziDMM-30">
          <mxGeometry width="90" height="100" as="geometry" />
        </mxCell>
        <mxCell id="S9imu5vdCcydGHCziDMM-29" value="&lt;font face=&quot;Comic Sans MS&quot; color=&quot;#000000&quot;&gt;&lt;span style=&quot;font-size: 14px;&quot;&gt;&lt;b&gt;mes&lt;/b&gt;&lt;/span&gt;&lt;/font&gt;" style="text;strokeColor=none;align=center;fillColor=none;html=1;verticalAlign=middle;whiteSpace=wrap;rounded=0;fontFamily=Architects Daughter;fontSource=https%3A%2F%2Ffonts.googleapis.com%2Fcss%3Ffamily%3DArchitects%2BDaughter;container=0;" vertex="1" parent="S9imu5vdCcydGHCziDMM-30">
          <mxGeometry x="15" y="25" width="60" height="50" as="geometry" />
        </mxCell>
        <mxCell id="S9imu5vdCcydGHCziDMM-31" value="" style="line;strokeWidth=2;html=1;perimeter=backbonePerimeter;points=[];outlineConnect=0;hachureGap=4;fontFamily=Architects Daughter;fontSource=https://fonts.googleapis.com/css?family=Architects+Daughter;strokeColor=#000000;" vertex="1" parent="S9imu5vdCcydGHCziDMM-110">
          <mxGeometry x="75.5" y="518" width="1190" height="10" as="geometry" />
        </mxCell>
        <mxCell id="S9imu5vdCcydGHCziDMM-32" value="" style="group;aspect=fixed;" vertex="1" connectable="0" parent="S9imu5vdCcydGHCziDMM-110">
          <mxGeometry x="57.5" y="490" width="45" height="30" as="geometry" />
        </mxCell>
        <mxCell id="S9imu5vdCcydGHCziDMM-33" value="" style="strokeWidth=2;html=1;shape=mxgraph.flowchart.start_2;whiteSpace=wrap;rounded=0;labelBackgroundColor=none;strokeColor=#000000;align=center;verticalAlign=middle;fontFamily=Helvetica;fontSize=12;fontColor=default;fillColor=#d5e8d4;aspect=fixed;" vertex="1" parent="S9imu5vdCcydGHCziDMM-32">
          <mxGeometry x="7.5" width="30" height="30" as="geometry" />
        </mxCell>
        <mxCell id="S9imu5vdCcydGHCziDMM-34" value="&lt;b&gt;&lt;font color=&quot;#000000&quot; style=&quot;font-size: 16px;&quot; face=&quot;Comic Sans MS&quot;&gt;1&lt;/font&gt;&lt;/b&gt;" style="text;strokeColor=none;align=center;fillColor=none;html=1;verticalAlign=middle;whiteSpace=wrap;rounded=0;fontFamily=Architects Daughter;fontSource=https://fonts.googleapis.com/css?family=Architects+Daughter;aspect=fixed;" vertex="1" parent="S9imu5vdCcydGHCziDMM-32">
          <mxGeometry y="3.75" width="45" height="22.5" as="geometry" />
        </mxCell>
        <mxCell id="S9imu5vdCcydGHCziDMM-35" value="" style="group;aspect=fixed;" vertex="1" connectable="0" parent="S9imu5vdCcydGHCziDMM-110">
          <mxGeometry x="465.5" y="490" width="45" height="30" as="geometry" />
        </mxCell>
        <mxCell id="S9imu5vdCcydGHCziDMM-36" value="" style="strokeWidth=2;html=1;shape=mxgraph.flowchart.start_2;whiteSpace=wrap;rounded=0;labelBackgroundColor=none;strokeColor=#000000;align=center;verticalAlign=middle;fontFamily=Helvetica;fontSize=12;fontColor=default;fillColor=#d5e8d4;aspect=fixed;" vertex="1" parent="S9imu5vdCcydGHCziDMM-35">
          <mxGeometry x="7.5" width="30" height="30" as="geometry" />
        </mxCell>
        <mxCell id="S9imu5vdCcydGHCziDMM-37" value="&lt;b&gt;&lt;font color=&quot;#000000&quot; style=&quot;font-size: 16px;&quot; face=&quot;Comic Sans MS&quot;&gt;3&lt;/font&gt;&lt;/b&gt;" style="text;strokeColor=none;align=center;fillColor=none;html=1;verticalAlign=middle;whiteSpace=wrap;rounded=0;fontFamily=Architects Daughter;fontSource=https://fonts.googleapis.com/css?family=Architects+Daughter;aspect=fixed;" vertex="1" parent="S9imu5vdCcydGHCziDMM-35">
          <mxGeometry y="3.75" width="45" height="22.5" as="geometry" />
        </mxCell>
        <mxCell id="S9imu5vdCcydGHCziDMM-38" value="" style="group;aspect=fixed;" vertex="1" connectable="0" parent="S9imu5vdCcydGHCziDMM-110">
          <mxGeometry x="255.5" y="488" width="45" height="30" as="geometry" />
        </mxCell>
        <mxCell id="S9imu5vdCcydGHCziDMM-39" value="" style="strokeWidth=2;html=1;shape=mxgraph.flowchart.start_2;whiteSpace=wrap;rounded=0;labelBackgroundColor=none;strokeColor=#000000;align=center;verticalAlign=middle;fontFamily=Helvetica;fontSize=12;fontColor=default;fillColor=#d5e8d4;aspect=fixed;" vertex="1" parent="S9imu5vdCcydGHCziDMM-38">
          <mxGeometry x="7.5" width="30" height="30" as="geometry" />
        </mxCell>
        <mxCell id="S9imu5vdCcydGHCziDMM-40" value="&lt;b&gt;&lt;font color=&quot;#000000&quot; style=&quot;font-size: 16px;&quot; face=&quot;Comic Sans MS&quot;&gt;2&lt;/font&gt;&lt;/b&gt;" style="text;strokeColor=none;align=center;fillColor=none;html=1;verticalAlign=middle;whiteSpace=wrap;rounded=0;fontFamily=Architects Daughter;fontSource=https://fonts.googleapis.com/css?family=Architects+Daughter;aspect=fixed;" vertex="1" parent="S9imu5vdCcydGHCziDMM-38">
          <mxGeometry y="3.75" width="45" height="22.5" as="geometry" />
        </mxCell>
        <mxCell id="S9imu5vdCcydGHCziDMM-41" value="" style="group;aspect=fixed;" vertex="1" connectable="0" parent="S9imu5vdCcydGHCziDMM-110">
          <mxGeometry x="903" y="490" width="45" height="30" as="geometry" />
        </mxCell>
        <mxCell id="S9imu5vdCcydGHCziDMM-42" value="" style="strokeWidth=2;html=1;shape=mxgraph.flowchart.start_2;whiteSpace=wrap;rounded=0;labelBackgroundColor=none;strokeColor=#000000;align=center;verticalAlign=middle;fontFamily=Helvetica;fontSize=12;fontColor=default;fillColor=#d5e8d4;aspect=fixed;" vertex="1" parent="S9imu5vdCcydGHCziDMM-41">
          <mxGeometry x="7.5" width="30" height="30" as="geometry" />
        </mxCell>
        <mxCell id="S9imu5vdCcydGHCziDMM-43" value="&lt;b&gt;&lt;font color=&quot;#000000&quot; style=&quot;font-size: 16px;&quot; face=&quot;Comic Sans MS&quot;&gt;5&lt;/font&gt;&lt;/b&gt;" style="text;strokeColor=none;align=center;fillColor=none;html=1;verticalAlign=middle;whiteSpace=wrap;rounded=0;fontFamily=Architects Daughter;fontSource=https://fonts.googleapis.com/css?family=Architects+Daughter;aspect=fixed;" vertex="1" parent="S9imu5vdCcydGHCziDMM-41">
          <mxGeometry y="3.75" width="45" height="22.5" as="geometry" />
        </mxCell>
        <mxCell id="S9imu5vdCcydGHCziDMM-44" value="" style="group;aspect=fixed;" vertex="1" connectable="0" parent="S9imu5vdCcydGHCziDMM-110">
          <mxGeometry x="716.5" y="490" width="45" height="30" as="geometry" />
        </mxCell>
        <mxCell id="S9imu5vdCcydGHCziDMM-45" value="" style="strokeWidth=2;html=1;shape=mxgraph.flowchart.start_2;whiteSpace=wrap;rounded=0;labelBackgroundColor=none;strokeColor=#000000;align=center;verticalAlign=middle;fontFamily=Helvetica;fontSize=12;fontColor=default;fillColor=#d5e8d4;aspect=fixed;" vertex="1" parent="S9imu5vdCcydGHCziDMM-44">
          <mxGeometry x="7.5" width="30" height="30" as="geometry" />
        </mxCell>
        <mxCell id="S9imu5vdCcydGHCziDMM-46" value="&lt;b&gt;&lt;font color=&quot;#000000&quot; style=&quot;font-size: 16px;&quot; face=&quot;Comic Sans MS&quot;&gt;4&lt;/font&gt;&lt;/b&gt;" style="text;strokeColor=none;align=center;fillColor=none;html=1;verticalAlign=middle;whiteSpace=wrap;rounded=0;fontFamily=Architects Daughter;fontSource=https://fonts.googleapis.com/css?family=Architects+Daughter;aspect=fixed;" vertex="1" parent="S9imu5vdCcydGHCziDMM-44">
          <mxGeometry y="3.75" width="45" height="22.5" as="geometry" />
        </mxCell>
        <mxCell id="S9imu5vdCcydGHCziDMM-47" value="" style="group;aspect=fixed;" vertex="1" connectable="0" parent="S9imu5vdCcydGHCziDMM-110">
          <mxGeometry x="1078.5" y="490" width="45" height="30" as="geometry" />
        </mxCell>
        <mxCell id="S9imu5vdCcydGHCziDMM-48" value="" style="strokeWidth=2;html=1;shape=mxgraph.flowchart.start_2;whiteSpace=wrap;rounded=0;labelBackgroundColor=none;strokeColor=#000000;align=center;verticalAlign=middle;fontFamily=Helvetica;fontSize=12;fontColor=default;fillColor=#d5e8d4;aspect=fixed;" vertex="1" parent="S9imu5vdCcydGHCziDMM-47">
          <mxGeometry x="7.5" width="30" height="30" as="geometry" />
        </mxCell>
        <mxCell id="S9imu5vdCcydGHCziDMM-49" value="&lt;b&gt;&lt;font color=&quot;#000000&quot; style=&quot;font-size: 16px;&quot; face=&quot;Comic Sans MS&quot;&gt;6&lt;/font&gt;&lt;/b&gt;" style="text;strokeColor=none;align=center;fillColor=none;html=1;verticalAlign=middle;whiteSpace=wrap;rounded=0;fontFamily=Architects Daughter;fontSource=https://fonts.googleapis.com/css?family=Architects+Daughter;aspect=fixed;" vertex="1" parent="S9imu5vdCcydGHCziDMM-47">
          <mxGeometry y="3.75" width="45" height="22.5" as="geometry" />
        </mxCell>
        <mxCell id="S9imu5vdCcydGHCziDMM-50" value="" style="group;aspect=fixed;" vertex="1" connectable="0" parent="S9imu5vdCcydGHCziDMM-110">
          <mxGeometry x="1215.5" y="485" width="90" height="35" as="geometry" />
        </mxCell>
        <mxCell id="S9imu5vdCcydGHCziDMM-51" value="" style="rounded=1;whiteSpace=wrap;html=1;absoluteArcSize=1;arcSize=14;strokeWidth=2;labelBackgroundColor=none;strokeColor=#0F140C;align=center;verticalAlign=middle;fontFamily=Helvetica;fontSize=12;fontColor=default;fillColor=#d5e8d4;aspect=fixed;" vertex="1" parent="S9imu5vdCcydGHCziDMM-50">
          <mxGeometry x="2.5" width="85" height="35" as="geometry" />
        </mxCell>
        <mxCell id="S9imu5vdCcydGHCziDMM-52" value="&lt;b&gt;&lt;font color=&quot;#000000&quot; style=&quot;font-size: 14px;&quot; face=&quot;Comic Sans MS&quot;&gt;default&lt;/font&gt;&lt;/b&gt;" style="text;strokeColor=none;align=center;fillColor=none;html=1;verticalAlign=middle;whiteSpace=wrap;rounded=0;fontFamily=Architects Daughter;fontSource=https://fonts.googleapis.com/css?family=Architects+Daughter;aspect=fixed;" vertex="1" parent="S9imu5vdCcydGHCziDMM-50">
          <mxGeometry y="2.5" width="90" height="30" as="geometry" />
        </mxCell>
        <mxCell id="S9imu5vdCcydGHCziDMM-53" value="" style="group;aspect=fixed;" vertex="1" connectable="0" parent="S9imu5vdCcydGHCziDMM-110">
          <mxGeometry y="560" width="160" height="40" as="geometry" />
        </mxCell>
        <mxCell id="S9imu5vdCcydGHCziDMM-5" value="" style="shape=trapezoid;perimeter=trapezoidPerimeter;whiteSpace=wrap;html=1;fixedSize=1;rounded=0;labelBackgroundColor=none;strokeColor=#0F140C;strokeWidth=2;align=center;verticalAlign=middle;fontFamily=Helvetica;fontSize=12;fontColor=default;fillColor=#d5e8d4;" vertex="1" parent="S9imu5vdCcydGHCziDMM-53">
          <mxGeometry x="10" width="140" height="40" as="geometry" />
        </mxCell>
        <mxCell id="S9imu5vdCcydGHCziDMM-18" value="&lt;b&gt;&lt;font color=&quot;#000000&quot; style=&quot;font-size: 16px;&quot; face=&quot;Comic Sans MS&quot;&gt;Bimestre_1&lt;/font&gt;&lt;/b&gt;" style="text;strokeColor=none;align=center;fillColor=none;html=1;verticalAlign=middle;whiteSpace=wrap;rounded=0;fontFamily=Architects Daughter;fontSource=https://fonts.googleapis.com/css?family=Architects+Daughter;" vertex="1" parent="S9imu5vdCcydGHCziDMM-53">
          <mxGeometry y="5" width="160" height="30" as="geometry" />
        </mxCell>
        <mxCell id="S9imu5vdCcydGHCziDMM-54" value="" style="group;aspect=fixed;" vertex="1" connectable="0" parent="S9imu5vdCcydGHCziDMM-110">
          <mxGeometry x="198" y="560" width="160" height="40" as="geometry" />
        </mxCell>
        <mxCell id="S9imu5vdCcydGHCziDMM-55" value="" style="shape=trapezoid;perimeter=trapezoidPerimeter;whiteSpace=wrap;html=1;fixedSize=1;rounded=0;labelBackgroundColor=none;strokeColor=#0F140C;strokeWidth=2;align=center;verticalAlign=middle;fontFamily=Helvetica;fontSize=12;fontColor=default;fillColor=#d5e8d4;" vertex="1" parent="S9imu5vdCcydGHCziDMM-54">
          <mxGeometry x="10" width="140" height="40" as="geometry" />
        </mxCell>
        <mxCell id="S9imu5vdCcydGHCziDMM-56" value="&lt;b&gt;&lt;font color=&quot;#000000&quot; style=&quot;font-size: 16px;&quot; face=&quot;Comic Sans MS&quot;&gt;Bimestre_2&lt;/font&gt;&lt;/b&gt;" style="text;strokeColor=none;align=center;fillColor=none;html=1;verticalAlign=middle;whiteSpace=wrap;rounded=0;fontFamily=Architects Daughter;fontSource=https://fonts.googleapis.com/css?family=Architects+Daughter;" vertex="1" parent="S9imu5vdCcydGHCziDMM-54">
          <mxGeometry y="5" width="160" height="30" as="geometry" />
        </mxCell>
        <mxCell id="S9imu5vdCcydGHCziDMM-57" value="" style="group;aspect=fixed;" vertex="1" connectable="0" parent="S9imu5vdCcydGHCziDMM-110">
          <mxGeometry x="408" y="562" width="160" height="40" as="geometry" />
        </mxCell>
        <mxCell id="S9imu5vdCcydGHCziDMM-58" value="" style="shape=trapezoid;perimeter=trapezoidPerimeter;whiteSpace=wrap;html=1;fixedSize=1;rounded=0;labelBackgroundColor=none;strokeColor=#0F140C;strokeWidth=2;align=center;verticalAlign=middle;fontFamily=Helvetica;fontSize=12;fontColor=default;fillColor=#d5e8d4;" vertex="1" parent="S9imu5vdCcydGHCziDMM-57">
          <mxGeometry x="10" width="140" height="40" as="geometry" />
        </mxCell>
        <mxCell id="S9imu5vdCcydGHCziDMM-59" value="&lt;b&gt;&lt;font color=&quot;#000000&quot; style=&quot;font-size: 16px;&quot; face=&quot;Comic Sans MS&quot;&gt;Bimestre_3&lt;/font&gt;&lt;/b&gt;" style="text;strokeColor=none;align=center;fillColor=none;html=1;verticalAlign=middle;whiteSpace=wrap;rounded=0;fontFamily=Architects Daughter;fontSource=https://fonts.googleapis.com/css?family=Architects+Daughter;" vertex="1" parent="S9imu5vdCcydGHCziDMM-57">
          <mxGeometry y="5" width="160" height="30" as="geometry" />
        </mxCell>
        <mxCell id="S9imu5vdCcydGHCziDMM-60" value="" style="group;aspect=fixed;" vertex="1" connectable="0" parent="S9imu5vdCcydGHCziDMM-110">
          <mxGeometry x="659.5" y="560" width="160" height="40" as="geometry" />
        </mxCell>
        <mxCell id="S9imu5vdCcydGHCziDMM-61" value="" style="shape=trapezoid;perimeter=trapezoidPerimeter;whiteSpace=wrap;html=1;fixedSize=1;rounded=0;labelBackgroundColor=none;strokeColor=#0F140C;strokeWidth=2;align=center;verticalAlign=middle;fontFamily=Helvetica;fontSize=12;fontColor=default;fillColor=#d5e8d4;" vertex="1" parent="S9imu5vdCcydGHCziDMM-60">
          <mxGeometry x="10" width="140" height="40" as="geometry" />
        </mxCell>
        <mxCell id="S9imu5vdCcydGHCziDMM-62" value="&lt;b&gt;&lt;font color=&quot;#000000&quot; style=&quot;font-size: 16px;&quot; face=&quot;Comic Sans MS&quot;&gt;Bimestre_4&lt;/font&gt;&lt;/b&gt;" style="text;strokeColor=none;align=center;fillColor=none;html=1;verticalAlign=middle;whiteSpace=wrap;rounded=0;fontFamily=Architects Daughter;fontSource=https://fonts.googleapis.com/css?family=Architects+Daughter;" vertex="1" parent="S9imu5vdCcydGHCziDMM-60">
          <mxGeometry y="5" width="160" height="30" as="geometry" />
        </mxCell>
        <mxCell id="S9imu5vdCcydGHCziDMM-73" style="edgeStyle=orthogonalEdgeStyle;rounded=0;sketch=1;hachureGap=4;jiggle=2;curveFitting=1;orthogonalLoop=1;jettySize=auto;html=1;exitX=0.5;exitY=1;exitDx=0;exitDy=0;fontFamily=Architects Daughter;fontSource=https%3A%2F%2Ffonts.googleapis.com%2Fcss%3Ffamily%3DArchitects%2BDaughter;" edge="1" parent="S9imu5vdCcydGHCziDMM-60" source="S9imu5vdCcydGHCziDMM-62" target="S9imu5vdCcydGHCziDMM-62">
          <mxGeometry relative="1" as="geometry" />
        </mxCell>
        <mxCell id="S9imu5vdCcydGHCziDMM-63" value="" style="group;aspect=fixed;" vertex="1" connectable="0" parent="S9imu5vdCcydGHCziDMM-110">
          <mxGeometry x="845.5" y="560" width="160" height="40" as="geometry" />
        </mxCell>
        <mxCell id="S9imu5vdCcydGHCziDMM-64" value="" style="shape=trapezoid;perimeter=trapezoidPerimeter;whiteSpace=wrap;html=1;fixedSize=1;rounded=0;labelBackgroundColor=none;strokeColor=#0F140C;strokeWidth=2;align=center;verticalAlign=middle;fontFamily=Helvetica;fontSize=12;fontColor=default;fillColor=#d5e8d4;" vertex="1" parent="S9imu5vdCcydGHCziDMM-63">
          <mxGeometry x="10" width="140" height="40" as="geometry" />
        </mxCell>
        <mxCell id="S9imu5vdCcydGHCziDMM-65" value="&lt;b&gt;&lt;font color=&quot;#000000&quot; style=&quot;font-size: 16px;&quot; face=&quot;Comic Sans MS&quot;&gt;Bimestre_5&lt;/font&gt;&lt;/b&gt;" style="text;strokeColor=none;align=center;fillColor=none;html=1;verticalAlign=middle;whiteSpace=wrap;rounded=0;fontFamily=Architects Daughter;fontSource=https://fonts.googleapis.com/css?family=Architects+Daughter;" vertex="1" parent="S9imu5vdCcydGHCziDMM-63">
          <mxGeometry y="5" width="160" height="30" as="geometry" />
        </mxCell>
        <mxCell id="S9imu5vdCcydGHCziDMM-66" value="" style="group;aspect=fixed;" vertex="1" connectable="0" parent="S9imu5vdCcydGHCziDMM-110">
          <mxGeometry x="1025.5" y="560" width="160" height="40" as="geometry" />
        </mxCell>
        <mxCell id="S9imu5vdCcydGHCziDMM-67" value="" style="shape=trapezoid;perimeter=trapezoidPerimeter;whiteSpace=wrap;html=1;fixedSize=1;rounded=0;labelBackgroundColor=none;strokeColor=#0F140C;strokeWidth=2;align=center;verticalAlign=middle;fontFamily=Helvetica;fontSize=12;fontColor=default;fillColor=#d5e8d4;" vertex="1" parent="S9imu5vdCcydGHCziDMM-66">
          <mxGeometry x="10" width="140" height="40" as="geometry" />
        </mxCell>
        <mxCell id="S9imu5vdCcydGHCziDMM-68" value="&lt;b&gt;&lt;font color=&quot;#000000&quot; style=&quot;font-size: 16px;&quot; face=&quot;Comic Sans MS&quot;&gt;Bimestre_6&lt;/font&gt;&lt;/b&gt;" style="text;strokeColor=none;align=center;fillColor=none;html=1;verticalAlign=middle;whiteSpace=wrap;rounded=0;fontFamily=Architects Daughter;fontSource=https://fonts.googleapis.com/css?family=Architects+Daughter;" vertex="1" parent="S9imu5vdCcydGHCziDMM-66">
          <mxGeometry y="5" width="160" height="30" as="geometry" />
        </mxCell>
        <mxCell id="S9imu5vdCcydGHCziDMM-69" value="" style="group;aspect=fixed;" vertex="1" connectable="0" parent="S9imu5vdCcydGHCziDMM-110">
          <mxGeometry x="1193.5" y="560" width="160" height="40" as="geometry" />
        </mxCell>
        <mxCell id="S9imu5vdCcydGHCziDMM-70" value="" style="shape=trapezoid;perimeter=trapezoidPerimeter;whiteSpace=wrap;html=1;fixedSize=1;rounded=0;labelBackgroundColor=none;strokeColor=#0F140C;strokeWidth=2;align=center;verticalAlign=middle;fontFamily=Helvetica;fontSize=12;fontColor=default;fillColor=#d5e8d4;" vertex="1" parent="S9imu5vdCcydGHCziDMM-69">
          <mxGeometry x="10" width="140" height="40" as="geometry" />
        </mxCell>
        <mxCell id="S9imu5vdCcydGHCziDMM-71" value="&lt;b&gt;&lt;font color=&quot;#000000&quot; style=&quot;font-size: 16px;&quot; face=&quot;Comic Sans MS&quot;&gt;mes_no_existe&lt;/font&gt;&lt;/b&gt;" style="text;strokeColor=none;align=center;fillColor=none;html=1;verticalAlign=middle;whiteSpace=wrap;rounded=0;fontFamily=Architects Daughter;fontSource=https://fonts.googleapis.com/css?family=Architects+Daughter;" vertex="1" parent="S9imu5vdCcydGHCziDMM-69">
          <mxGeometry y="5" width="160" height="30" as="geometry" />
        </mxCell>
        <mxCell id="S9imu5vdCcydGHCziDMM-79" value="" style="line;strokeWidth=2;html=1;perimeter=backbonePerimeter;points=[];outlineConnect=0;hachureGap=4;fontFamily=Architects Daughter;fontSource=https://fonts.googleapis.com/css?family=Architects+Daughter;strokeColor=#000000;" vertex="1" parent="S9imu5vdCcydGHCziDMM-110">
          <mxGeometry x="535.5" y="315" width="220" height="10" as="geometry" />
        </mxCell>
        <mxCell id="S9imu5vdCcydGHCziDMM-81" value="" style="line;strokeWidth=2;html=1;perimeter=backbonePerimeter;points=[];outlineConnect=0;hachureGap=4;fontFamily=Architects Daughter;fontSource=https://fonts.googleapis.com/css?family=Architects+Daughter;strokeColor=#000000;" vertex="1" parent="S9imu5vdCcydGHCziDMM-110">
          <mxGeometry x="690.5" y="196" width="65" height="10" as="geometry" />
        </mxCell>
        <mxCell id="S9imu5vdCcydGHCziDMM-82" value="" style="line;strokeWidth=2;html=1;perimeter=backbonePerimeter;points=[];outlineConnect=0;hachureGap=4;fontFamily=Architects Daughter;fontSource=https://fonts.googleapis.com/css?family=Architects+Daughter;strokeColor=#000000;" vertex="1" parent="S9imu5vdCcydGHCziDMM-110">
          <mxGeometry x="76" y="647" width="1189.5" height="10" as="geometry" />
        </mxCell>
        <mxCell id="S9imu5vdCcydGHCziDMM-83" value="" style="line;strokeWidth=2;html=1;perimeter=backbonePerimeter;points=[];outlineConnect=0;hachureGap=4;fontFamily=Architects Daughter;fontSource=https://fonts.googleapis.com/css?family=Architects+Daughter;strokeColor=#000000;" vertex="1" parent="S9imu5vdCcydGHCziDMM-110">
          <mxGeometry x="535.5" y="196" width="65" height="10" as="geometry" />
        </mxCell>
        <mxCell id="S9imu5vdCcydGHCziDMM-84" value="" style="line;strokeWidth=2;direction=south;html=1;hachureGap=4;fontFamily=Architects Daughter;fontSource=https://fonts.googleapis.com/css?family=Architects+Daughter;strokeColor=#000000;" vertex="1" parent="S9imu5vdCcydGHCziDMM-110">
          <mxGeometry x="533.5" y="290" width="10" height="30" as="geometry" />
        </mxCell>
        <mxCell id="S9imu5vdCcydGHCziDMM-85" value="" style="line;strokeWidth=2;direction=south;html=1;hachureGap=4;fontFamily=Architects Daughter;fontSource=https://fonts.googleapis.com/css?family=Architects+Daughter;strokeColor=#000000;" vertex="1" parent="S9imu5vdCcydGHCziDMM-110">
          <mxGeometry x="533.5" y="200" width="10" height="60" as="geometry" />
        </mxCell>
        <mxCell id="S9imu5vdCcydGHCziDMM-86" value="" style="line;strokeWidth=2;direction=south;html=1;hachureGap=4;fontFamily=Architects Daughter;fontSource=https://fonts.googleapis.com/css?family=Architects+Daughter;strokeColor=#000000;" vertex="1" parent="S9imu5vdCcydGHCziDMM-110">
          <mxGeometry x="640.5" y="110" width="10" height="40" as="geometry" />
        </mxCell>
        <mxCell id="S9imu5vdCcydGHCziDMM-87" value="" style="line;strokeWidth=2;direction=south;html=1;hachureGap=4;fontFamily=Architects Daughter;fontSource=https://fonts.googleapis.com/css?family=Architects+Daughter;strokeColor=#000000;" vertex="1" parent="S9imu5vdCcydGHCziDMM-110">
          <mxGeometry x="640.5" y="40" width="10" height="30" as="geometry" />
        </mxCell>
        <mxCell id="S9imu5vdCcydGHCziDMM-88" value="" style="line;strokeWidth=2;direction=south;html=1;hachureGap=4;fontFamily=Architects Daughter;fontSource=https://fonts.googleapis.com/css?family=Architects+Daughter;strokeColor=#000000;" vertex="1" parent="S9imu5vdCcydGHCziDMM-110">
          <mxGeometry x="273" y="520" width="10" height="40" as="geometry" />
        </mxCell>
        <mxCell id="S9imu5vdCcydGHCziDMM-89" value="" style="line;strokeWidth=2;direction=south;html=1;hachureGap=4;fontFamily=Architects Daughter;fontSource=https://fonts.googleapis.com/css?family=Architects+Daughter;strokeColor=#000000;" vertex="1" parent="S9imu5vdCcydGHCziDMM-110">
          <mxGeometry x="751.5" y="201" width="10" height="119" as="geometry" />
        </mxCell>
        <mxCell id="S9imu5vdCcydGHCziDMM-90" value="" style="line;strokeWidth=2;direction=south;html=1;hachureGap=4;fontFamily=Architects Daughter;fontSource=https://fonts.googleapis.com/css?family=Architects+Daughter;strokeColor=#000000;" vertex="1" parent="S9imu5vdCcydGHCziDMM-110">
          <mxGeometry x="483" y="520" width="10" height="40" as="geometry" />
        </mxCell>
        <mxCell id="S9imu5vdCcydGHCziDMM-91" value="" style="line;strokeWidth=2;direction=south;html=1;hachureGap=4;fontFamily=Architects Daughter;fontSource=https://fonts.googleapis.com/css?family=Architects+Daughter;strokeColor=#000000;" vertex="1" parent="S9imu5vdCcydGHCziDMM-110">
          <mxGeometry x="483" y="600" width="10" height="50" as="geometry" />
        </mxCell>
        <mxCell id="S9imu5vdCcydGHCziDMM-92" value="" style="line;strokeWidth=2;direction=south;html=1;hachureGap=4;fontFamily=Architects Daughter;fontSource=https://fonts.googleapis.com/css?family=Architects+Daughter;strokeColor=#000000;" vertex="1" parent="S9imu5vdCcydGHCziDMM-110">
          <mxGeometry x="734.5" y="520" width="10" height="40" as="geometry" />
        </mxCell>
        <mxCell id="S9imu5vdCcydGHCziDMM-93" value="" style="line;strokeWidth=2;direction=south;html=1;hachureGap=4;fontFamily=Architects Daughter;fontSource=https://fonts.googleapis.com/css?family=Architects+Daughter;strokeColor=#000000;" vertex="1" parent="S9imu5vdCcydGHCziDMM-110">
          <mxGeometry x="920.5" y="520" width="10" height="40" as="geometry" />
        </mxCell>
        <mxCell id="S9imu5vdCcydGHCziDMM-94" value="" style="line;strokeWidth=2;direction=south;html=1;hachureGap=4;fontFamily=Architects Daughter;fontSource=https://fonts.googleapis.com/css?family=Architects+Daughter;strokeColor=#000000;" vertex="1" parent="S9imu5vdCcydGHCziDMM-110">
          <mxGeometry x="640.5" y="652" width="10" height="50" as="geometry" />
        </mxCell>
        <mxCell id="S9imu5vdCcydGHCziDMM-95" value="" style="line;strokeWidth=2;direction=south;html=1;hachureGap=4;fontFamily=Architects Daughter;fontSource=https://fonts.googleapis.com/css?family=Architects+Daughter;strokeColor=#000000;" vertex="1" parent="S9imu5vdCcydGHCziDMM-110">
          <mxGeometry x="1096" y="602" width="10" height="50" as="geometry" />
        </mxCell>
        <mxCell id="S9imu5vdCcydGHCziDMM-96" value="" style="line;strokeWidth=2;direction=south;html=1;hachureGap=4;fontFamily=Architects Daughter;fontSource=https://fonts.googleapis.com/css?family=Architects+Daughter;strokeColor=#000000;" vertex="1" parent="S9imu5vdCcydGHCziDMM-110">
          <mxGeometry x="1096" y="520" width="10" height="40" as="geometry" />
        </mxCell>
        <mxCell id="S9imu5vdCcydGHCziDMM-97" value="" style="line;strokeWidth=2;direction=south;html=1;hachureGap=4;fontFamily=Architects Daughter;fontSource=https://fonts.googleapis.com/css?family=Architects+Daughter;strokeColor=#000000;" vertex="1" parent="S9imu5vdCcydGHCziDMM-110">
          <mxGeometry x="734.5" y="600" width="10" height="50" as="geometry" />
        </mxCell>
        <mxCell id="S9imu5vdCcydGHCziDMM-98" value="" style="line;strokeWidth=2;direction=south;html=1;hachureGap=4;fontFamily=Architects Daughter;fontSource=https://fonts.googleapis.com/css?family=Architects+Daughter;strokeColor=#000000;" vertex="1" parent="S9imu5vdCcydGHCziDMM-110">
          <mxGeometry x="73" y="600" width="10" height="50" as="geometry" />
        </mxCell>
        <mxCell id="S9imu5vdCcydGHCziDMM-99" value="" style="line;strokeWidth=2;direction=south;html=1;hachureGap=4;fontFamily=Architects Daughter;fontSource=https://fonts.googleapis.com/css?family=Architects+Daughter;strokeColor=#000000;" vertex="1" parent="S9imu5vdCcydGHCziDMM-110">
          <mxGeometry x="73" y="520" width="10" height="40" as="geometry" />
        </mxCell>
        <mxCell id="S9imu5vdCcydGHCziDMM-100" value="" style="line;strokeWidth=2;direction=south;html=1;hachureGap=4;fontFamily=Architects Daughter;fontSource=https://fonts.googleapis.com/css?family=Architects+Daughter;strokeColor=#000000;" vertex="1" parent="S9imu5vdCcydGHCziDMM-110">
          <mxGeometry x="640.5" y="320" width="10" height="30" as="geometry" />
        </mxCell>
        <mxCell id="S9imu5vdCcydGHCziDMM-101" value="" style="line;strokeWidth=2;direction=south;html=1;hachureGap=4;fontFamily=Architects Daughter;fontSource=https://fonts.googleapis.com/css?family=Architects+Daughter;strokeColor=#000000;" vertex="1" parent="S9imu5vdCcydGHCziDMM-110">
          <mxGeometry x="640.5" y="380" width="10" height="40" as="geometry" />
        </mxCell>
        <mxCell id="S9imu5vdCcydGHCziDMM-103" value="" style="line;strokeWidth=2;direction=south;html=1;hachureGap=4;fontFamily=Architects Daughter;fontSource=https://fonts.googleapis.com/css?family=Architects+Daughter;strokeColor=#000000;" vertex="1" parent="S9imu5vdCcydGHCziDMM-110">
          <mxGeometry x="273" y="600" width="10" height="50" as="geometry" />
        </mxCell>
        <mxCell id="S9imu5vdCcydGHCziDMM-104" value="" style="line;strokeWidth=2;direction=south;html=1;hachureGap=4;fontFamily=Architects Daughter;fontSource=https://fonts.googleapis.com/css?family=Architects+Daughter;strokeColor=#000000;" vertex="1" parent="S9imu5vdCcydGHCziDMM-110">
          <mxGeometry x="1261.5" y="521" width="10" height="39" as="geometry" />
        </mxCell>
        <mxCell id="S9imu5vdCcydGHCziDMM-105" value="" style="line;strokeWidth=2;direction=south;html=1;hachureGap=4;fontFamily=Architects Daughter;fontSource=https://fonts.googleapis.com/css?family=Architects+Daughter;strokeColor=#000000;" vertex="1" parent="S9imu5vdCcydGHCziDMM-110">
          <mxGeometry x="1262.5" y="600" width="10" height="50" as="geometry" />
        </mxCell>
        <mxCell id="S9imu5vdCcydGHCziDMM-106" value="" style="line;strokeWidth=2;direction=south;html=1;hachureGap=4;fontFamily=Architects Daughter;fontSource=https://fonts.googleapis.com/css?family=Architects+Daughter;strokeColor=#000000;" vertex="1" parent="S9imu5vdCcydGHCziDMM-110">
          <mxGeometry x="920.5" y="600" width="10" height="50" as="geometry" />
        </mxCell>
      </root>
    </mxGraphModel>
  </diagram>
</mxfile>
